HIERARCHY
ROOT root
{
	OFFSET	0	13.1	24.9
	CHANNELS 6  Xposition Yposition Zposition Xrotation Yrotation Zrotation
	JOINT spine_1
	{
		OFFSET	0	9.99999	0
		CHANNELS 3  Xrotation Yrotation Zrotation
		JOINT spine_2
		{
			OFFSET	0	112	-10
			CHANNELS 3  Xrotation Yrotation Zrotation
			JOINT spine_3
			{
				OFFSET	0	206.5	19.3
				CHANNELS 3  Xrotation Yrotation Zrotation
				JOINT spine_4
				{
					OFFSET	0	110.4	14.6
					CHANNELS 3  Xrotation Yrotation Zrotation
					JOINT neck_1
					{
						OFFSET	0	71.8	-50.3
						CHANNELS 3  Xrotation Yrotation Zrotation
						JOINT neck_2
						{
							OFFSET	0	86.2	-25.8
							CHANNELS 3  Xrotation Yrotation Zrotation
							JOINT head_ee
							{
								OFFSET	0	179.8	-8.7
								CHANNELS 3  Xrotation Yrotation Zrotation
								End Site
								{
									OFFSET	1	0	0
								}
							}
						}
					}
					JOINT left_clavicle
					{
						OFFSET	-43.2	22.4	-70.8
						CHANNELS 3  Xrotation Yrotation Zrotation
						JOINT left_shoulder
						{
							OFFSET	-93.9	-5.79999	48.7
							CHANNELS 3  Xrotation Yrotation Zrotation
							JOINT left_elbow
							{
								OFFSET	-291.4	-30.8	15.2
								CHANNELS 3  Xrotation Yrotation Zrotation
								JOINT left_lowarm_twist
								{
									OFFSET	-110.7	-3.89999	13.6
									CHANNELS 3  Xrotation Yrotation Zrotation
									JOINT left_hand
									{
										OFFSET	-110.7	-3.89999	13.6
										CHANNELS 3  Xrotation Yrotation Zrotation
										JOINT left_ee
										{
											OFFSET	-80.8	-5.10001	12.1
											CHANNELS 3  Xrotation Yrotation Zrotation
											End Site
											{
												OFFSET	1	0	0
											}
										}
									}
								}
							}
						}
					}
					JOINT right_clavicle
					{
						OFFSET	43.2	22.4	-70.8
						CHANNELS 3  Xrotation Yrotation Zrotation
						JOINT right_shoulder
						{
							OFFSET	93.9	-5.79999	48.7
							CHANNELS 3  Xrotation Yrotation Zrotation
							JOINT right_elbow
							{
								OFFSET	291.4	-30.8	15.2
								CHANNELS 3  Xrotation Yrotation Zrotation
								JOINT right_lowarm_twist
								{
									OFFSET	110.7	-3.89999	13.6
									CHANNELS 3  Xrotation Yrotation Zrotation
									JOINT right_hand
									{
										OFFSET	110.7	-3.89999	13.6
										CHANNELS 3  Xrotation Yrotation Zrotation
										JOINT right_ee
										{
											OFFSET	80.8	-5.10001	12.1
											CHANNELS 3  Xrotation Yrotation Zrotation
											End Site
											{
												OFFSET	1	0	0
											}
										}
									}
								}
							}
						}
					}
				}
			}
		}
	}
	JOINT left_hip
	{
		OFFSET	-82.8	-127.5	0.300001
		CHANNELS 3  Xrotation Yrotation Zrotation
		JOINT left_knee
		{
			OFFSET	-28.2	-396.7	2.2
			CHANNELS 3  Xrotation Yrotation Zrotation
			JOINT left_ankle
			{
				OFFSET	-11.7	-411.3	35.4
				CHANNELS 3  Xrotation Yrotation Zrotation
				JOINT left_toes
				{
					OFFSET	0	-60	-88.6
					CHANNELS 3  Xrotation Yrotation Zrotation
					JOINT left_foot_ee
					{
						OFFSET	-22.5	-16.5	-42.2
						CHANNELS 3  Xrotation Yrotation Zrotation
						End Site
						{
							OFFSET	1	0	0
						}
					}
				}
			}
		}
	}
	JOINT right_hip
	{
		OFFSET	82.8	-127.5	0.300001
		CHANNELS 3  Xrotation Yrotation Zrotation
		JOINT right_knee
		{
			OFFSET	28.2	-396.7	2.2
			CHANNELS 3  Xrotation Yrotation Zrotation
			JOINT right_ankle
			{
				OFFSET	11.7	-411.3	35.4
				CHANNELS 3  Xrotation Yrotation Zrotation
				JOINT right_toes
				{
					OFFSET	0	-60	-88.6
					CHANNELS 3  Xrotation Yrotation Zrotation
					JOINT right_foot_ee
					{
						OFFSET	22.5	-16.5	-42.2
						CHANNELS 3  Xrotation Yrotation Zrotation
						End Site
						{
							OFFSET	1	0	0
						}
					}
				}
			}
		}
	}
}
MOTION
Frames: 15
Frame Time: 0.02
3468.73 769.918 -1553.71 -0.653235 70.8469 5.27414 0.506669 0.13637 -0.713734 0.506935 0.181509 -0.70361 0.504732 0.319618 -0.652579 0.504201 0.212547 -0.694865 -4.66508 18.7292 -4.83783 -4.10673 38.0357 -1.88694 -0.0 0.0 -0.0 5.00013 16.7857 9.79477 -19.8256 -19.0979 53.6793 2.19665 -47.4112 0.964611 11.3475 0.259542 -1.42395 1.57578 -11.2502 5.85579 -0.0 0.0 -0.0 7.39976 12.0855 -14.1482 -25.4021 27.1838 -58.2137 1.10418 28.677 -0.282251 -53.3 4.46323 -4.84427 0.563524 -8.62458 -7.23848 0.0 0.0 0.0 -1.04083 5.1656 -3.52781 -18.2658 0.312247 2.7738 12.5276 -0.883518 -1.78459 4.32614 -0.0 -0.0 -0.0 0.0 -0.0 0.269641 25.2633 -7.75364 -7.65993 -0.238767 -1.15045 -7.36997 -20.5828 -1.1187 35.9206 -0.0 -0.0 0.0 0.0 0.0 
3465.09 763.245 -1557.2 1.40705 71.3854 3.23509 0.220573 0.145235 -0.640052 0.220782 0.185668 -0.629514 0.218766 0.31164 -0.577618 0.218365 0.216507 -0.619585 -5.19992 18.8367 -4.40301 -4.76517 37.9806 -1.20461 -0.0 0.0 -0.0 5.00056 17.2918 9.78634 -20.0413 -18.6902 53.9212 2.19661 -47.4107 0.964585 11.659 0.262664 -1.46362 1.63038 -11.9506 5.91885 -0.0 0.0 -0.0 7.50264 12.5093 -14.3492 -24.8866 27.2893 -58.0879 1.08433 28.2415 -0.27279 -52.7024 4.39168 -4.81672 0.569635 -8.44658 -7.20861 0.0 0.0 0.0 -1.12842 5.04296 -2.92357 -18.7661 0.308281 2.85047 13.6051 -0.220609 -1.92656 5.0077 -0.0 -0.0 -0.0 0.0 -0.0 0.194409 25.1562 -7.84665 -9.44454 -0.272151 -1.42226 -6.64154 -20.8765 -1.00809 36.5441 -0.0 -0.0 0.0 0.0 0.0 
3459.33 755.757 -1563.08 1.99201 71.9655 1.92838 0.138124 0.208045 -0.572363 0.138273 0.244043 -0.557965 0.135889 0.354702 -0.495045 0.135651 0.272069 -0.544849 -5.30574 18.8344 -4.41038 -4.89052 37.9942 -1.1711 -0.0 0.0 -0.0 4.98212 17.6404 9.75076 -20.8824 -18.7593 54.2198 2.19395 -47.3761 0.962625 11.8485 0.264457 -1.48775 1.69633 -12.4373 6.15111 -0.0 0.0 -0.0 7.84521 13.663 -15.0321 -23.2469 27.7983 -57.8236 1.07004 27.9258 -0.266062 -52.2843 4.34177 -4.79701 0.576439 -8.34739 -7.2141 0.0 0.0 0.0 0.577779 4.74322 -4.33349 -20.4658 0.28981 3.1106 14.4195 0.266766 -2.03279 5.51067 -0.0 -0.0 -0.0 0.0 -0.0 -0.790907 25.1994 -6.74264 -10.4229 -0.286853 -1.57165 -6.1186 -21.0008 -0.92837 37.0927 -0.0 -0.0 0.0 0.0 0.0 
3457.28 745.01 -1567.99 0.96071 71.2948 2.74213 0.0271674 0.254221 -0.514252 0.0272689 0.286429 -0.497033 0.0247543 0.384321 -0.425889 0.0246372 0.312238 -0.481239 -5.41386 18.7512 -4.66443 -5.00699 38.0371 -1.40685 -0.0 0.0 -0.0 4.79944 17.2963 9.46998 -21.7661 -18.7609 54.0634 2.17157 -47.0834 0.946197 12.1098 0.266799 -1.52104 1.7447 -12.7927 6.32144 -0.0 0.0 -0.0 8.1815 15.2177 -15.6817 -21.7214 28.4743 -57.7529 1.05377 27.5641 -0.258487 -51.9334 4.30002 -4.78018 0.582689 -8.28269 -7.22952 0.0 0.0 0.0 1.79184 4.81339 -4.81667 -23.0155 0.247653 3.49953 15.0678 0.684956 -2.11657 5.89447 -0.0 -0.0 -0.0 0.0 -0.0 -0.656875 24.8143 -6.86075 -9.44472 -0.272153 -1.42228 -5.4516 -20.8102 -0.825643 37.6281 -0.0 -0.0 0.0 0.0 0.0 
3450.25 725.621 -1583.2 0.27073 71.2399 3.94157 -0.179316 0.299755 -0.466447 -0.179255 0.328829 -0.446428 -0.181869 0.416484 -0.366016 -0.181881 0.353453 -0.427198 -6.97084 18.3002 -4.40162 -6.87374 37.1741 -0.61751 -0.0 0.0 -0.0 3.35828 16.9897 7.21014 -23.3249 -18.5889 54.0344 2.29281 -48.6311 1.0361 12.1898 0.267486 -1.53124 2.0566 -12.9936 8.34731 -0.0 0.0 -0.0 8.48307 17.0156 -16.2375 -18.8322 29.7192 -57.8945 1.08071 28.1617 -0.271079 -50.6631 4.1497 -4.71714 0.571976 -8.02929 -7.06019 0.0 0.0 0.0 4.30026 4.62659 -8.08412 -35.2729 -0.193735 5.32528 23.9597 1.73686 -3.22153 7.28917 -0.0 -0.0 -0.0 0.0 -0.0 -1.00637 18.761 -5.84128 -13.9044 -0.318443 -2.10483 2.84678 -13.3833 0.415255 39.4322 -0.0 -0.0 0.0 0.0 0.0 
3444.03 715.707 -1595.14 1.43161 70.5088 3.13534 -0.397386 0.358435 -0.269434 -0.397424 0.374854 -0.246079 -0.399108 0.419319 -0.158875 -0.398932 0.388965 -0.223106 -8.05325 18.0193 -4.18665 -8.15462 36.5966 -0.0508897 -0.0 0.0 -0.0 2.34711 16.795 5.6232 -24.7223 -18.5037 54.2601 2.37251 -49.5993 1.09636 12.2101 0.267658 -1.53382 2.28212 -13.1093 9.83065 -0.0 0.0 -0.0 8.74012 18.2481 -16.7244 -16.6795 30.6605 -58.406 1.09874 28.5578 -0.279642 -49.8023 4.04864 -4.67252 0.571175 -7.72575 -6.93558 0.0 0.0 0.0 7.00046 4.96827 -10.6849 -43.7369 -0.721456 6.51332 29.977 2.51262 -3.89335 8.15577 -0.0 -0.0 -0.0 0.0 -0.0 -1.23362 14.0596 -5.67234 -16.0916 -0.321702 -2.44037 8.86864 -7.90536 1.26545 40.5527 -0.0 -0.0 0.0 0.0 0.0 
3442.93 735.31 -1596.33 1.73871 70.2598 2.98743 -0.599999 0.464395 0.0979294 -0.60011 0.457223 0.127282 -0.599124 0.417932 0.224914 -0.598915 0.448208 0.156086 -8.79367 18.0656 -3.45503 -9.0422 36.2466 0.967238 -0.0 0.0 -0.0 1.44015 17.8972 4.29253 -26.734 -17.9914 54.9205 2.40638 -49.9995 1.12223 11.7348 0.263391 -1.47327 2.44359 -13.3806 10.8099 -0.0 0.0 -0.0 8.98862 19.1245 -17.2137 -14.8483 31.3935 -58.8578 1.1686 30.0651 -0.313847 -48.6314 3.91227 -4.60942 0.521562 -6.95506 -6.30612 0.0 0.0 0.0 9.13638 5.24986 -11.6578 -48.322 -1.07919 7.12131 33.2131 3.02064 -4.22655 8.34994 -0.0 -0.0 -0.0 0.0 -0.0 -1.37028 10.8112 -5.52721 -15.2526 -0.321966 -2.31165 14.4368 -3.84483 2.02287 40.1961 -0.0 -0.0 0.0 0.0 0.0 
3443.49 728.265 -1605.88 2.66135 69.9639 1.98097 -0.731233 0.53888 0.240356 -0.731352 0.522493 0.27416 -0.728837 0.448368 0.383575 -0.728689 0.503319 0.307949 -9.31096 18.0536 -3.04018 -9.65302 35.9891 1.56506 -0.0 0.0 -0.0 0.834716 18.5078 3.42359 -27.9089 -17.7109 55.4177 2.40286 -49.9582 1.11953 11.4477 0.26057 -1.4367 2.55027 -13.4969 11.4866 -0.0 0.0 -0.0 9.44305 19.886 -18.1681 -12.9086 32.1622 -59.4117 1.23018 31.3567 -0.3453 -47.7661 3.81232 -4.561 0.459907 -6.24929 -5.62026 0.0 0.0 0.0 10.6901 5.4588 -12.2839 -51.5133 -1.3565 7.52696 35.214 3.39692 -4.42225 8.41887 -0.0 -0.0 -0.0 0.0 -0.0 -1.48195 8.51984 -5.45768 -14.7284 -0.321175 -2.23122 18.2919 -0.958176 2.53205 39.949 -0.0 -0.0 0.0 0.0 0.0 
3441.95 723.892 -1608.1 0.349766 69.7425 3.79756 -0.599762 0.552822 0.392774 -0.599831 0.526709 0.427156 -0.595807 0.419669 0.532694 -0.595856 0.49853 0.459731 -9.63945 18.4279 -2.43215 -10.0613 36.3182 2.38884 -0.0 0.0 -0.0 0.666589 19.078 3.2237 -28.4345 -17.1189 56.0425 2.12047 -46.4028 0.908978 11.1918 0.257901 -1.40412 2.5987 -13.2336 11.94 -0.0 0.0 -0.0 9.72676 20.7887 -18.7327 -11.7474 32.6506 -58.7969 1.27875 32.3509 -0.37093 -46.7231 3.69284 -4.50064 0.122318 -5.19249 -2.97456 0.0 0.0 0.0 13.3509 6.30705 -12.3364 -53.7449 -1.56373 7.8013 33.1951 3.36446 -4.22361 8.15428 -0.0 -0.0 -0.0 0.0 -0.0 -3.53286 7.01706 -4.71062 -12.064 -0.305781 -1.82275 20.9663 1.05787 2.87833 40.2042 -0.0 -0.0 0.0 0.0 0.0 
3427.07 730.833 -1607.46 3.08488 70.6964 -0.100712 -0.57711 0.611237 0.609913 -0.577085 0.571189 0.647571 -0.570388 0.414848 0.757299 -0.570798 0.529241 0.682282 -10.1321 18.2818 -1.96459 -10.6282 35.7801 2.9816 -0.0 0.0 -0.0 0.785896 19.8511 3.47177 -29.7339 -16.8704 57.6024 1.89056 -43.1183 0.747025 10.0965 0.244835 -1.26484 2.59055 -12.9418 12.0182 -0.0 0.0 -0.0 10.0781 21.4973 -19.4628 -10.4072 33.1526 -58.6962 1.30374 32.8542 -0.384395 -45.2612 3.52726 -4.41241 -0.121063 -4.55725 -1.1111 0.0 0.0 0.0 15.6422 6.6376 -12.8612 -55.5275 -1.73688 8.01459 29.5761 3.65885 -3.84628 7.41436 -0.0 -0.0 -0.0 0.0 -0.0 -5.13913 6.23241 -3.97144 -10.8941 -0.293024 -1.6437 22.8351 2.66238 3.11871 40.1278 -0.0 -0.0 0.0 0.0 0.0 
3423.31 725.644 -1611.1 2.14943 71.3386 0.450433 -0.459277 0.3336 0.754277 -0.459006 0.284929 0.773975 -0.454874 0.109424 0.817462 -0.455728 0.23715 0.789924 -11.0269 18.4149 -1.0021 -11.6709 35.4935 4.27568 -0.0 0.0 -0.0 0.346634 20.1287 2.85362 -30.3151 -16.0582 58.2582 1.67545 -39.6884 0.604697 10.2838 0.247258 -1.28863 2.48906 -12.5764 11.4885 -0.0 0.0 -0.0 10.2959 21.9981 -19.9103 -8.48884 33.7079 -58.2831 1.31943 33.1673 -0.392945 -44.3935 3.43006 -4.35805 -0.320903 -4.13101 0.384015 0.0 0.0 0.0 18.0167 7.02704 -14.4256 -56.7748 -1.86198 8.16063 25.4701 3.69931 -3.38935 6.30282 -0.0 -0.0 -0.0 0.0 -0.0 -6.17963 5.61966 -2.96989 -10.0763 -0.281937 -1.51871 24.1351 3.8018 3.28503 40.0736 -0.0 -0.0 0.0 0.0 0.0 
3417.84 725.28 -1611.15 3.00091 71.1493 -0.73112 -0.40708 0.115538 0.837955 -0.406692 0.0619841 0.843608 -0.405535 -0.12264 0.836945 -0.406513 0.0110739 0.845809 -12.327 18.8456 0.582968 -13.1838 35.4475 6.39729 -0.0 0.0 -0.0 0.615068 20.0719 3.24121 -30.2307 -15.5485 58.7036 1.38281 -34.4095 0.428197 10.4157 0.248918 -1.3054 2.29872 -11.0104 10.8881 -0.0 0.0 -0.0 10.561 22.3418 -20.4779 -6.97576 34.1216 -58.2506 1.3124 33.0273 -0.389107 -43.6445 3.34683 -4.30995 -0.533637 -3.83452 1.91326 0.0 0.0 0.0 20.5668 7.65404 -14.4487 -55.8219 -1.76612 8.04931 22.3603 2.5903 -3.02753 3.20729 -0.0 -0.0 -0.0 0.0 -0.0 -7.27574 5.1967 -2.22993 -10.2074 -0.283834 -1.53873 25.0376 4.60548 3.40017 39.9857 -0.0 -0.0 0.0 0.0 0.0 
3412.57 725.586 -1613.27 3.64679 71.4181 -2.05655 -0.21209 0.130192 0.946142 -0.211595 0.069725 0.952508 -0.210152 -0.135505 0.945396 -0.211399 0.0154966 0.954931 -12.9845 19.0712 1.43831 -13.9405 35.4267 7.51938 -0.0 0.0 -0.0 0.622118 20.1832 3.26204 -31.1091 -15.0843 59.2137 1.17802 -30.2649 0.31858 10.3282 0.247821 -1.29428 2.15911 -9.74658 10.4898 -0.0 0.0 -0.0 10.8337 22.6447 -21.0671 -4.62973 34.69 -57.9662 1.30587 32.8968 -0.385552 -43.0521 3.28144 -4.27114 -0.724284 -3.7312 3.21695 0.0 0.0 0.0 22.2938 7.43788 -14.8831 -55.0925 -1.69401 7.96303 20.1838 1.60491 -2.76614 1.00387 -0.0 -0.0 -0.0 0.0 -0.0 -7.97925 4.88006 -1.38573 -10.3692 -0.286113 -1.56346 25.0361 4.70818 3.4012 39.664 -0.0 -0.0 0.0 0.0 0.0 
3400.99 729.819 -1617.39 3.12598 69.6601 -1.35125 -0.200947 0.445889 0.968021 -0.200507 0.383391 0.994429 -0.193424 0.162308 1.05334 -0.194824 0.326617 1.01449 -13.5589 19.1227 1.72087 -14.6044 35.4229 8.01504 -0.0 0.0 -0.0 0.57166 20.2984 3.19925 -32.4459 -14.6403 59.7638 1.03155 -27.0665 0.248293 10.4636 0.249511 -1.3115 2.05332 -8.72535 10.2105 -0.0 0.0 -0.0 11.0268 22.8542 -21.4853 -2.98139 35.095 -57.773 1.30196 32.8186 -0.383432 -42.6423 3.23646 -4.24391 -0.927148 -3.66183 4.5893 0.0 0.0 0.0 25.1556 7.24241 -14.1951 -54.2089 -1.60815 7.85732 18.0705 0.959015 -2.50392 -0.813147 0.0 0.0 -0.0 0.0 -0.0 -8.54629 4.6506 -0.822969 -10.4884 -0.287746 -1.58166 24.1761 4.57196 3.29839 39.186 -0.0 -0.0 0.0 0.0 0.0 
3392.34 732.726 -1616.63 1.49927 68.7043 -0.260389 -0.229194 0.669847 1.11634 -0.228699 0.597459 1.15669 -0.216003 0.336368 1.25766 -0.217818 0.530757 1.18877 -14.1711 19.275 1.24664 -15.3735 36.0666 7.87985 -0.0 0.0 -0.0 0.567448 20.6837 3.22988 -33.7344 -14.5232 60.9497 0.931017 -24.7587 0.20435 10.5076 0.250051 -1.31709 1.93846 -7.33119 10.0247 -0.0 0.0 -0.0 11.2357 23.0598 -21.9404 -1.03697 35.4695 -58.7449 1.3231 33.2403 -0.394957 -42.3591 3.20548 -4.2249 -1.31826 -3.39996 7.30372 0.0 0.0 0.0 25.958 7.29569 -13.3443 -50.6669 -1.28075 7.42087 16.6406 0.299939 -2.32369 -2.07442 0.0 0.0 -0.0 0.0 -0.0 -7.49041 4.52331 -1.02345 -9.87254 -0.278896 -1.48758 23.637 4.48592 3.23329 38.2339 -0.0 -0.0 0.0 0.0 0.0 
